<svg xmlns="http://www.w3.org/2000/svg" id="Capa_1" data-name="Capa 1" viewBox="0 0 337.82 337.74"><defs><style>.cls-1{fill:#fff;}</style></defs><path class="cls-1" d="M392.16,80.57V269.08a127.72,127.72,0,0,1-5.63,21.27c-11.86,30.86-43.54,53.3-76.47,53.4-57.76.17-115.52,0-173.28.06A72.31,72.31,0,0,1,121.45,342C82,333.56,54.06,298,54.34,258.17c.4-55.56.1-111.13.1-166.69A76.71,76.71,0,0,1,55.14,79q7.28-44.65,47.66-65c8.32-4.21,17.29-6.27,26.38-7.92h188.5c.85.19,1.7.42,2.56.57q45.51,8.09,65.11,49.92C388.93,64.2,390.62,72.37,392.16,80.57ZM223.67,34.64H141a72.23,72.23,0,0,0-9.85.58C104.29,38.94,83.36,62.41,83.3,89.5c-.12,56.89,0,113.78,0,170.68a47.67,47.67,0,0,0,1,9.47c5.33,26.7,27.82,45.3,55.06,45.34q84,.11,168,0a59.37,59.37,0,0,0,8.2-.57c27.15-3.81,47.92-27.14,48-54.45.12-56.78,0-113.57.05-170.35a49.36,49.36,0,0,0-1-9.48,55.64,55.64,0,0,0-54.93-45.49C279.68,34.58,251.68,34.65,223.67,34.64Z" transform="translate(-54.34 -6.09)"></path><path class="cls-1" d="M223.6,90.21a84.62,84.62,0,1,1-84.79,84.44A84.37,84.37,0,0,1,223.6,90.21Zm-.15,140.42a55.81,55.81,0,1,0-55.83-55.7A55.84,55.84,0,0,0,223.45,230.63Z" transform="translate(-54.34 -6.09)"></path><path class="cls-1" d="M336.31,83.6A21.44,21.44,0,1,1,315.09,62,21.68,21.68,0,0,1,336.31,83.6Z" transform="translate(-54.34 -6.09)"></path></svg>